<svg width="18" height="14" viewBox="0 0 18 14" xmlns="http://www.w3.org/2000/svg"><title>twitter (1)</title><path d="M17.12 1.653a7.114 7.114 0 0 1-2.02.552A3.523 3.523 0 0 0 16.646.267a7.28 7.28 0 0 1-2.234.843A3.509 3.509 0 0 0 11.845 0 3.51 3.51 0 0 0 8.42 4.3 9.984 9.984 0 0 1 1.171.652a3.428 3.428 0 0 0-.476 1.762c0 1.216.622 2.287 1.565 2.915a3.523 3.523 0 0 1-1.594-.437v.042A3.51 3.51 0 0 0 3.487 8.37a3.588 3.588 0 0 1-1.58.06 3.523 3.523 0 0 0 3.29 2.432 7.065 7.065 0 0 1-4.361 1.499c-.279 0-.557-.016-.836-.048a10.028 10.028 0 0 0 5.4 1.573c6.471 0 10.007-5.336 10.007-9.957 0-.15 0-.299-.011-.448a7.087 7.087 0 0 0 1.757-1.814l-.033-.014z" fill="#FFF" fill-rule="evenodd"/></svg>